<svg width="40" height="40" viewBox="0 0 40 40" fill="none" xmlns="http://www.w3.org/2000/svg">
<path d="M16.0993 35.3024C15.8046 35.4837 15.7124 35.8709 15.8937 36.1657C16.078 36.4502 16.458 36.5423 16.7528 36.3683C17.463 35.9208 18.1131 35.3877 18.6885 34.7803L18.7913 34.6702C19.0293 34.4216 19.0186 34.0236 18.77 33.7894C18.5179 33.5514 18.1237 33.5617 17.8857 33.8104V33.8142L17.7897 33.9101C17.2855 34.4429 16.7174 34.9117 16.0993 35.3024Z" fill="#5271FF"/>
<path d="M25.3237 24.596C26.0019 24.2232 26.7228 23.9353 27.4722 23.7365L27.5076 23.7258C27.8344 23.6226 28.0191 23.2746 27.9197 22.944C27.8165 22.6173 27.4688 22.4292 27.142 22.5285L27.1063 22.5392C26.2685 22.7666 25.4585 23.0933 24.6987 23.5126C24.4006 23.6832 24.2974 24.0667 24.4714 24.3652C24.6489 24.6565 25.0255 24.7559 25.3237 24.596Z" fill="#5271FF"/>
<path d="M29.9481 22.7283C30.2957 22.5189 30.6331 22.2881 30.9492 22.0288C30.7539 21.8582 30.5943 21.6449 30.4842 21.4035L30.2816 20.9629C29.9762 21.2188 29.6533 21.4461 29.3121 21.6522C29.0139 21.8262 28.9145 22.2097 29.092 22.5082C29.2694 22.7996 29.6495 22.899 29.9481 22.7283Z" fill="#5271FF"/>
<path d="M20.3653 32.5296C20.742 31.7766 21.0329 30.9848 21.2283 30.1643L21.2568 30.0616C21.349 29.7277 21.1502 29.3832 20.8162 29.2944C20.486 29.2019 20.1418 29.3972 20.0527 29.7311L20.0211 29.8377C19.8505 30.5656 19.5946 31.276 19.261 31.9472C19.101 32.2525 19.2183 32.6324 19.5237 32.7923C19.8291 32.9488 20.202 32.8315 20.3653 32.5296Z" fill="#5271FF"/>
<path d="M22.6165 25.1601L22.5632 25.2172C21.9562 25.828 21.4307 26.5173 20.9973 27.2633C20.8267 27.5653 20.9333 27.9454 21.2353 28.116C21.5369 28.2794 21.9136 28.1727 22.0876 27.878C22.4638 27.2279 22.9258 26.624 23.4581 26.0908L23.508 26.0413C23.7495 25.7926 23.746 25.3947 23.5008 25.1532C23.2559 24.9152 22.858 24.9152 22.6165 25.1601Z" fill="#5271FF"/>
<path d="M13.951 36.2122L13.777 36.2651C13.3577 36.3931 12.9247 36.5245 12.4773 36.7058C12.1753 37.2351 11.8912 37.7644 11.625 38.2972C11.7884 38.3543 11.9658 38.3364 12.1151 38.2511C12.7614 37.9171 13.4396 37.6509 14.1426 37.4624L14.3204 37.4057C14.6506 37.3025 14.8353 36.9544 14.7321 36.6243C14.6292 36.2937 14.2812 36.109 13.951 36.2122Z" fill="#5271FF"/>
<path d="M32.1881 10.312C30.6363 10.312 29.3754 9.05495 29.3754 7.49941C29.3754 5.94767 30.6363 4.68679 32.1881 4.68679C33.7434 4.68679 35.0004 5.94767 35.0004 7.49941C35.0004 9.05495 33.7434 10.312 32.1881 10.312ZM37.4616 2.00894C35.7784 0.510502 33.5411 -0.199886 31.3 0.0487118C27.7421 0.428651 24.9046 3.1952 24.4321 6.74296C24.1659 8.9377 24.8727 11.1431 26.3677 12.7767C28.2958 14.8294 29.8903 17.1734 31.0906 19.7233L31.6199 20.8845C31.7227 21.1083 31.9467 21.2465 32.1915 21.2465C32.4368 21.2431 32.6603 21.1011 32.7597 20.8772C34.184 17.8659 36.0161 15.0639 38.2038 12.5528C40.8634 9.42081 40.5333 4.73666 37.4616 2.00894Z" fill="#5271FF"/>
<path d="M9.06242 27.5003C6.99193 27.5003 5.31216 25.8241 5.31216 23.75C5.31216 21.6798 6.99193 19.9997 9.06242 19.9997C11.1363 19.9997 12.8123 21.6798 12.8123 23.75C12.8123 25.8241 11.1363 27.5003 9.06242 27.5003ZM15.1383 17.3185C13.1996 15.5927 10.6142 14.7685 8.0327 15.0563C3.11067 15.5714 -0.465558 19.9784 0.0493028 24.9005C0.244661 26.7899 1.03676 28.5621 2.30791 29.9718C4.58062 32.419 6.45575 35.2068 7.86209 38.2361L8.49425 39.6317C8.63629 39.9477 9.00568 40.0863 9.32176 39.9443C9.45999 39.8837 9.57005 39.7737 9.6306 39.6317L10.0746 38.6548C11.5552 35.4589 13.5119 32.5111 15.8805 29.9044C19.1407 26.2219 18.8105 20.5929 15.1383 17.3185Z" fill="#5271FF"/>
</svg>
