<?xml version="1.0" encoding="UTF-8"?>
<svg version="1.1" xmlns="http://www.w3.org/2000/svg" width="136" height="55">
<path d="M0 0 C44.88 0 89.76 0 136 0 C136 18.15 136 36.3 136 55 C91.12 55 46.24 55 0 55 C0 36.85 0 18.7 0 0 Z " fill="#F9F9F9" transform="translate(0,0)"/>
<path d="M0 0 C7.74229539 -0.7183573 13.36048786 -0.31648665 19.86328125 4.17578125 C24.18115555 7.86215657 26.72303022 11.20445172 27.29296875 16.95703125 C27.31031745 19.65995802 27.22275501 22.30713941 27 25 C26.38640625 25.08636719 25.7728125 25.17273438 25.140625 25.26171875 C22.3640926 26.21931843 22.03603974 27.22602456 20.75 29.8125 C18.12029504 34.36139958 14.97465287 36.41810201 10 38 C9.01 38 8.02 38 7 38 C7 37.34 7 36.68 7 36 C6.34 36 5.68 36 5 36 C5 36.66 5 37.32 5 38 C-0.0798761 37.75220117 -2.83616812 36.09116827 -6.453125 32.73828125 C-9.73748425 29.04752401 -10.83525565 25.31795479 -11.4375 20.5 C-10.82901029 15.63208234 -9.11504083 11.85659444 -5.43359375 8.625 C-4.89863281 8.2125 -4.36367187 7.8 -3.8125 7.375 C-0.67736393 4.72755177 -0.53471211 3.87827334 0 0 Z " fill="#B9BABB" transform="translate(20,6)"/>
<path d="M0 0 C7.74229539 -0.7183573 13.36048786 -0.31648665 19.86328125 4.17578125 C24.18115555 7.86215657 26.72303022 11.20445172 27.29296875 16.95703125 C27.31031745 19.65995802 27.22275501 22.30713941 27 25 C25.68 24.67 24.36 24.34 23 24 C22.91363281 23.34773438 22.82726563 22.69546875 22.73828125 22.0234375 C21.74641149 15.85382562 20.42933725 12.42933725 16 8 C16 11.12241798 18.06692692 12.65688111 20 15 C21.53597454 18.07194908 21.2265038 20.60244293 21 24 C19.12222187 29.21605036 16.5073813 31.96441668 12 35 C9.625 34.8125 9.625 34.8125 8 34 C10 32 10 32 11.9375 31.125 C14.4723143 29.74237402 15.47250163 28.44485074 17 26 C17.87136478 21.1721681 17.69611697 17.17619764 15.1875 12.9375 C11.6653899 9.81791677 8.53162602 9.78078645 3.93359375 9.83984375 C0.33521401 10.13789136 -1.50475343 11.50475343 -4 14 C-4.99 14.33 -5.98 14.66 -7 15 C-7.33321563 20.2018662 -7.61147189 24.59871025 -5.5 29.4375 C-2.36494266 32.65093378 0.88540541 34.30223039 5 36 C5 36.66 5 37.32 5 38 C-0.0798761 37.75220117 -2.83616812 36.09116827 -6.453125 32.73828125 C-9.73748425 29.04752401 -10.83525565 25.31795479 -11.4375 20.5 C-10.82901029 15.63208234 -9.11504083 11.85659444 -5.43359375 8.625 C-4.89863281 8.2125 -4.36367187 7.8 -3.8125 7.375 C-0.67736393 4.72755177 -0.53471211 3.87827334 0 0 Z " fill="#E6E8EC" transform="translate(20,6)"/>
<path d="M0 0 C3.42375 -0.061875 6.8475 -0.12375 10.375 -0.1875 C11.45313965 -0.21481201 12.5312793 -0.24212402 13.64208984 -0.27026367 C14.91366943 -0.28150269 14.91366943 -0.28150269 16.2109375 -0.29296875 C17.08024902 -0.3086792 17.94956055 -0.32438965 18.84521484 -0.34057617 C19.55629395 -0.22818604 20.26737305 -0.1157959 21 0 C23.06520632 3.09780948 23.29477024 3.9540481 23.3125 7.5 C23.32925781 8.2734375 23.34601563 9.046875 23.36328125 9.84375 C23 12 23 12 21.9609375 13.76953125 C18.9138551 15.68154511 15.78608644 15.31398914 12.3125 15.1875 C11.2596582 15.16719727 11.2596582 15.16719727 10.18554688 15.14648438 C8.45670171 15.11120182 6.72825235 15.05739583 5 15 C5 17.31 5 19.62 5 22 C3.35 22 1.7 22 0 22 C0 14.74 0 7.48 0 0 Z " fill="#1E1E25" transform="translate(77,25)"/>
<path d="M0 0 C3.31248187 -0.02888146 6.62493167 -0.04675799 9.9375 -0.0625 C10.88302734 -0.07087891 11.82855469 -0.07925781 12.80273438 -0.08789062 C14.15141602 -0.09272461 14.15141602 -0.09272461 15.52734375 -0.09765625 C16.77632446 -0.10551147 16.77632446 -0.10551147 18.05053711 -0.11352539 C20 0 20 0 21 1 C21.04063832 2.66617115 21.042721 4.33388095 21 6 C19.68 6 18.36 6 17 6 C17 5.34 17 4.68 17 4 C12.38 4 7.76 4 3 4 C3 5.32 3 6.64 3 8 C4.57201172 7.96519531 4.57201172 7.96519531 6.17578125 7.9296875 C7.55468037 7.91092697 8.9335872 7.89272707 10.3125 7.875 C11.00279297 7.85824219 11.69308594 7.84148438 12.40429688 7.82421875 C16.17135396 7.78782206 17.78431704 7.85621136 21 10 C21.36328125 12.3125 21.36328125 12.3125 21.3125 15 C21.30863281 15.886875 21.30476563 16.77375 21.30078125 17.6875 C21 20 21 20 19 22 C17.15234375 22.25878906 17.15234375 22.25878906 14.9375 22.265625 C13.74253906 22.26949219 13.74253906 22.26949219 12.5234375 22.2734375 C11.69070312 22.26570313 10.85796875 22.25796875 10 22.25 C9.16726562 22.25773437 8.33453125 22.26546875 7.4765625 22.2734375 C6.67992188 22.27085938 5.88328125 22.26828125 5.0625 22.265625 C4.33160156 22.26336914 3.60070312 22.26111328 2.84765625 22.25878906 C1 22 1 22 -1 20 C-1.125 17.375 -1.125 17.375 -1 15 C0.65 15 2.3 15 4 15 C4 15.66 4 16.32 4 17 C8.29 17 12.58 17 17 17 C17 15.68 17 14.36 17 13 C15.86820313 13.02320313 14.73640625 13.04640625 13.5703125 13.0703125 C12.08854825 13.08906901 10.60677688 13.10726934 9.125 13.125 C8.37863281 13.14175781 7.63226563 13.15851562 6.86328125 13.17578125 C4.90805539 13.1933959 2.95257979 13.10320189 1 13 C-1 11 -1 11 -1.23046875 8.90625 C-1.21628906 8.1121875 -1.20210938 7.318125 -1.1875 6.5 C-1.18105469 5.7059375 -1.17460938 4.911875 -1.16796875 4.09375 C-1 2 -1 2 0 0 Z " fill="#1D1D24" transform="translate(103,25)"/>
<path d="M0 0 C0.89460938 -0.00128906 1.78921875 -0.00257812 2.7109375 -0.00390625 C3.65195312 -0.00003906 4.59296875 0.00382812 5.5625 0.0078125 C6.97402344 0.00201172 6.97402344 0.00201172 8.4140625 -0.00390625 C9.75597656 -0.00197266 9.75597656 -0.00197266 11.125 0 C11.95128906 0.00112793 12.77757813 0.00225586 13.62890625 0.00341797 C15.5625 0.1328125 15.5625 0.1328125 16.5625 1.1328125 C16.60313832 2.79898365 16.605221 4.46669345 16.5625 6.1328125 C15.2425 6.1328125 13.9225 6.1328125 12.5625 6.1328125 C12.5625 5.4728125 12.5625 4.8128125 12.5625 4.1328125 C7.9425 4.1328125 3.3225 4.1328125 -1.4375 4.1328125 C-1.4375 8.4228125 -1.4375 12.7128125 -1.4375 17.1328125 C2.8525 17.1328125 7.1425 17.1328125 11.5625 17.1328125 C11.5625 16.1428125 11.5625 15.1528125 11.5625 14.1328125 C9.9125 14.1328125 8.2625 14.1328125 6.5625 14.1328125 C6.5625 12.4828125 6.5625 10.8328125 6.5625 9.1328125 C9.8625 9.1328125 13.1625 9.1328125 16.5625 9.1328125 C16.61641993 10.92415228 16.65525571 12.71595149 16.6875 14.5078125 C16.71070312 15.50554688 16.73390625 16.50328125 16.7578125 17.53125 C16.5625 20.1328125 16.5625 20.1328125 14.5625 22.1328125 C12.71484375 22.39160156 12.71484375 22.39160156 10.5 22.3984375 C9.30503906 22.40230469 9.30503906 22.40230469 8.0859375 22.40625 C7.25320312 22.39851563 6.42046875 22.39078125 5.5625 22.3828125 C4.72976562 22.39054687 3.89703125 22.39828125 3.0390625 22.40625 C2.24242187 22.40367188 1.44578125 22.40109375 0.625 22.3984375 C-0.10589844 22.39618164 -0.83679687 22.39392578 -1.58984375 22.39160156 C-3.4375 22.1328125 -3.4375 22.1328125 -5.4375 20.1328125 C-5.68041992 18.17749023 -5.68041992 18.17749023 -5.66796875 15.81640625 C-5.66603516 14.97013672 -5.66410156 14.12386719 -5.66210938 13.25195312 C-5.64986328 12.36701172 -5.63761719 11.48207031 -5.625 10.5703125 C-5.62435547 9.68150391 -5.62371094 8.79269531 -5.62304688 7.87695312 C-5.56902387 0.00760202 -5.56902387 0.00760202 0 0 Z " fill="#1B1B22" transform="translate(56.4375,24.8671875)"/>
<path d="M0 0 C4.42610196 0.36279524 6.39743509 1.54792364 9.8125 4.3125 C11.40637042 7.50024083 11.33913137 10.85177959 10.8125 14.3125 C8.8125 16.8125 8.8125 16.8125 6.8125 18.3125 C7.3384375 17.013125 7.3384375 17.013125 7.875 15.6875 C8.90143421 11.99233684 8.86976385 9.97225949 7.8125 6.3125 C6.87652685 4.29298938 6.87652685 4.29298938 4.8125 3.3125 C1.25538862 2.77781938 -1.93283898 2.68516949 -5.1875 4.3125 C-6.80386173 7.54522346 -6.60304886 10.81098997 -6.1875 14.3125 C-5.30535113 17.19464887 -5.30535113 17.19464887 -4.1875 19.3125 C-5.56312854 18.02284824 -6.89516393 16.68560707 -8.1875 15.3125 C-8.1875 14.6525 -8.1875 13.9925 -8.1875 13.3125 C-9.1775 13.3125 -10.1675 13.3125 -11.1875 13.3125 C-10.42922908 14.48737036 -9.65542245 15.65222592 -8.875 16.8125 C-8.44574219 17.4621875 -8.01648438 18.111875 -7.57421875 18.78125 C-7.11660156 19.2865625 -6.65898437 19.791875 -6.1875 20.3125 C-5.1975 20.3125 -4.2075 20.3125 -3.1875 20.3125 C-1.5 21.8125 -1.5 21.8125 -0.1875 23.3125 C-0.5175 23.9725 -0.8475 24.6325 -1.1875 25.3125 C-7.02363239 23.18006701 -10.30749279 21.07251443 -13.1875 15.3125 C-13.25783769 13.43870395 -13.2718022 11.56248898 -13.25 9.6875 C-13.24097656 8.68460938 -13.23195313 7.68171875 -13.22265625 6.6484375 C-13.21105469 5.87757812 -13.19945312 5.10671875 -13.1875 4.3125 C-10.17019866 2.72343085 -7.53819932 1.94641609 -4.1875 1.3125 C-3.1875 0.3125 -3.1875 0.3125 0 0 Z " fill="#F4F5F7" transform="translate(25.1875,16.6875)"/>
<path d="M0 0 C0.66 0 1.32 0 2 0 C2 2.31 2 4.62 2 7 C3.98 6.01 5.96 5.02 8 4 C7.79375 4.928125 7.5875 5.85625 7.375 6.8125 C6.63307034 10.15173402 6.63307034 10.15173402 9 13 C6.33333333 11.66666667 3.66666667 10.33333333 1 9 C1 10.32 1 11.64 1 13 C-0.81242052 13.02687279 -2.62495233 13.04633715 -4.4375 13.0625 C-5.44683594 13.07410156 -6.45617187 13.08570313 -7.49609375 13.09765625 C-10 13 -10 13 -11 12 C-11.1328125 10.1875 -11.1328125 10.1875 -11.125 8 C-11.12757812 7.278125 -11.13015625 6.55625 -11.1328125 5.8125 C-11 4 -11 4 -10 3 C-8.48071962 2.92820036 -6.95832518 2.91607993 -5.4375 2.9375 C-4.61121094 2.94652344 -3.78492187 2.95554687 -2.93359375 2.96484375 C-2.29550781 2.97644531 -1.65742187 2.98804688 -1 3 C-0.67 2.01 -0.34 1.02 0 0 Z " fill="#D7D7D7" transform="translate(114,8)"/>
<path d="M0 0 C0.66 0 1.32 0 2 0 C2 4.29 2 8.58 2 13 C1.34 13 0.68 13 0 13 C0 10.03 0 7.06 0 4 C-0.66 4 -1.32 4 -2 4 C-2 6.97 -2 9.94 -2 13 C-2.33 11.68 -2.66 10.36 -3 9 C-5.97 9 -8.94 9 -12 9 C-12 10.32 -12 11.64 -12 13 C-12.66 13 -13.32 13 -14 13 C-14.02687279 11.18757948 -14.04633715 9.37504767 -14.0625 7.5625 C-14.07410156 6.55316406 -14.08570313 5.54382813 -14.09765625 4.50390625 C-14 2 -14 2 -13 1 C-9.89186744 0.92771785 -6.79573128 1.00385413 -3.6875 1.0625 C-1.081172 1.31133058 -1.081172 1.31133058 0 0 Z " fill="#D0D0D0" transform="translate(65,8)"/>
<path d="M0 0 C3.96 0 7.92 0 12 0 C12 0.66 12 1.32 12 2 C13.65 2 15.3 2 17 2 C17 2.33 17 2.66 17 3 C13.7 3 10.4 3 7 3 C7 4.98 7 6.96 7 9 C8.65 9 10.3 9 12 9 C12 9.99 12 10.98 12 12 C8.04 12 4.08 12 0 12 C0 8.04 0 4.08 0 0 Z " fill="#FEFEFE" transform="translate(56,30)"/>
<path d="M0 0 C0.66 0 1.32 0 2 0 C1.89300781 0.845625 1.78601563 1.69125 1.67578125 2.5625 C0.57428702 12.20703027 0.57428702 12.20703027 4 21 C7.32274301 24.61974797 11.36843445 27.70025719 16.33203125 28.265625 C21.61362511 28.23235512 26.00433433 27.73762284 31 26 C30 29 30 29 27.625 30.1875 C21.55503415 31.54800959 14.90322868 32.3969773 9.1875 29.4375 C4.17974216 26.042818 -0.57804678 20.97220353 -2 15 C-2.46452677 9.57715486 -2.09081121 5.09635234 0 0 Z " fill="#2D2D33" transform="translate(7,17)"/>
<path d="M0 0 C0 0.99 0 1.98 0 3 C-1.051875 3.226875 -2.10375 3.45375 -3.1875 3.6875 C-7.16827855 4.80179501 -9.28228936 6.88262603 -12 10 C-12.33 10.33 -12.66 10.66 -13 11 C-13.53664633 16.16412127 -13.59138363 20.64474584 -11.5 25.4375 C-8.36494266 28.65093378 -5.11459459 30.30223039 -1 32 C-1 32.66 -1 33.32 -1 34 C-6.0798761 33.75220117 -8.83616812 32.09116827 -12.453125 28.73828125 C-15.73748425 25.04752401 -16.83525565 21.31795479 -17.4375 16.5 C-16.7153316 10.7226528 -14.23941132 6.85832953 -9.9375 3.125 C-6.24303045 0.45240501 -4.58497666 0 0 0 Z " fill="#3F3B5E" transform="translate(26,10)"/>
<path d="M0 0 C7.74229539 -0.7183573 13.36048786 -0.31648665 19.86328125 4.17578125 C24.18115555 7.86215657 26.72303022 11.20445172 27.29296875 16.95703125 C27.31031745 19.65995802 27.22275501 22.30713941 27 25 C26.34 25 25.68 25 25 25 C24.98582031 24.443125 24.97164062 23.88625 24.95703125 23.3125 C24.51457678 16.23322854 22.48232725 11.32110839 17.3125 6.390625 C11.60379305 2.15666735 5.86550815 2.48508689 -1 3 C-0.67 2.01 -0.34 1.02 0 0 Z " fill="#34343A" transform="translate(20,6)"/>
<path d="M0 0 C0.33 0 0.66 0 1 0 C1.09796875 0.72445313 1.1959375 1.44890625 1.296875 2.1953125 C2.4490903 9.64498036 3.80574289 14.53776015 10 19.3125 C12.4544263 20.69311479 14.25051483 21.57700228 17 22 C17 21.34 17 20.68 17 20 C17.66 20 18.32 20 19 20 C19 20.66 19 21.32 19 22 C22.3 21.01 25.6 20.02 29 19 C29.33 19.66 29.66 20.32 30 21 C24.34705383 23.94936322 19.36923281 25.06652255 13 24 C6.78877215 21.41110057 2.44329821 17.31958589 -0.25 11.125 C-1.08797783 7.6334257 -1.2105001 4.57850177 -1 1 C-0.67 0.67 -0.34 0.34 0 0 Z " fill="#E0E0E2" transform="translate(8,22)"/>
<path d="M0 0 C2.64590014 -0.02684679 5.29153096 -0.04676357 7.9375 -0.0625 C8.69224609 -0.07087891 9.44699219 -0.07925781 10.22460938 -0.08789062 C12.14994313 -0.09652441 14.07535581 -0.05224333 16 0 C17 1 17 1 17.09765625 3.06640625 C17.06510417 5.37760417 17.03255208 7.68880208 17 10 C14.03 10 11.06 10 8 10 C8 8.35 8 6.7 8 5 C10.64 5 13.28 5 16 5 C16 4.01 16 3.02 16 2 C11.05 2 6.1 2 1 2 C1 4.64 1 7.28 1 10 C0.34 10 -0.32 10 -1 10 C-1.125 2.25 -1.125 2.25 0 0 Z " fill="#C8C8C8" transform="translate(84,11)"/>
<path d="M0 0 C7.49339766 5.86439817 7.49339766 5.86439817 8.37109375 11.296875 C8.52111161 16.83871108 7.87744028 20.73049126 4.6328125 25.30078125 C1.92960344 28.11392944 -1.22238445 29.9963239 -5 31 C-5.99 30.67 -6.98 30.34 -8 30 C-7.29875 29.608125 -6.5975 29.21625 -5.875 28.8125 C1.33117373 24.31373784 1.33117373 24.31373784 5 17 C5.62772989 11.24580933 4.50805023 8.5398297 1 4 C0.34 3.01 -0.32 2.02 -1 1 C-0.67 0.67 -0.34 0.34 0 0 Z " fill="#4B4768" transform="translate(35,13)"/>
<path d="M0 0 C2.94705087 2.3576407 4.90815443 4.33930489 5.65625 8.1171875 C5.71298216 12.66994351 5.69683805 15.78431255 2.6875 19.375 C1.8625 20.15875 1.0375 20.9425 0.1875 21.75 C-0.4725 21.42 -1.1325 21.09 -1.8125 20.75 C-0.8225 19.5125 -0.8225 19.5125 0.1875 18.25 C2.81597002 14.28852018 2.79171295 11.43265038 2.1875 6.75 C0.31734906 4.31880377 -1.09388345 3.10930827 -3.8125 1.75 C-7.3125 1.5 -7.3125 1.5 -10.8125 1.75 C-11.4725 2.41 -12.1325 3.07 -12.8125 3.75 C-13.8025 3.75 -14.7925 3.75 -15.8125 3.75 C-14.8125 0.75 -14.8125 0.75 -13.25 -0.4375 C-8.58320619 -1.99309794 -4.43213324 -1.969837 0 0 Z " fill="#6190C1" transform="translate(32.8125,16.25)"/>
<path d="M0 0 C4.29 0 8.58 0 13 0 C13 1.98 13 3.96 13 6 C8.71 6 4.42 6 0 6 C0 4.02 0 2.04 0 0 Z " fill="#DEDEDF" transform="translate(82,29)"/>
<path d="M0 0 C0.66 0 1.32 0 2 0 C2 0.66 2 1.32 2 2 C3.32 2 4.64 2 6 2 C6 2.66 6 3.32 6 4 C4.68 4 3.36 4 2 4 C2 6.31 2 8.62 2 11 C3.32 11.33 4.64 11.66 6 12 C4.33388095 12.042721 2.66617115 12.04063832 1 12 C0 11 0 11 -0.0625 7.4375 C-0.041875 6.303125 -0.02125 5.16875 0 4 C-1.98 4 -3.96 4 -6 4 C-6 6.64 -6 9.28 -6 12 C-6.66 12 -7.32 12 -8 12 C-8.125 4.25 -8.125 4.25 -7 2 C-4.69 2 -2.38 2 0 2 C0 1.34 0 0.68 0 0 Z " fill="#CFCFCF" transform="translate(76,9)"/>
<path d="M0 0 C4.62 0 9.24 0 14 0 C14 1.32 14 2.64 14 4 C9.38 4 4.76 4 0 4 C0 2.68 0 1.36 0 0 Z " fill="#DBDBDC" transform="translate(106,29)"/>
<path d="M0 0 C2.64 0 5.28 0 8 0 C8 1.98 8 3.96 8 6 C5.36 6 2.72 6 0 6 C0 4.02 0 2.04 0 0 Z " fill="#FEFEFE" transform="translate(105,13)"/>
<path d="M0 0 C0.78375 0.04125 1.5675 0.0825 2.375 0.125 C3 2.5 3 2.5 3.375 5.125 C2.715 5.785 2.055 6.445 1.375 7.125 C-1.25 6.75 -1.25 6.75 -3.625 6.125 C-4.25 4.25 -4.25 4.25 -4.625 2.125 C-2.625 0.125 -2.625 0.125 0 0 Z " fill="#F8F8F8" transform="translate(26.625,23.875)"/>
<path d="M0 0 C5.70035501 -0.4560284 8.54784247 0.39587248 13 4 C14.59387042 7.18774083 14.52663137 10.53927959 14 14 C12 16.5 12 16.5 10 18 C10.350625 17.13375 10.70125 16.2675 11.0625 15.375 C12.08893421 11.67983684 12.05726385 9.65975949 11 6 C9.22408054 3.07495618 6.98403768 2.6249964 3.8125 1.8125 C2.554375 1.544375 1.29625 1.27625 0 1 C0 0.67 0 0.34 0 0 Z " fill="#E6EBF0" transform="translate(22,17)"/>
<path d="M0 0 C0.66 0 1.32 0 2 0 C2 2.31 2 4.62 2 7 C3.98 6.01 5.96 5.02 8 4 C7.79375 4.928125 7.5875 5.85625 7.375 6.8125 C6.63307034 10.15173402 6.63307034 10.15173402 9 13 C6.33333333 11.66666667 3.66666667 10.33333333 1 9 C0.67 10.32 0.34 11.64 0 13 C0 8.71 0 4.42 0 0 Z " fill="#C9C9C9" transform="translate(114,8)"/>
<path d="M0 0 C-1 3 -1 3 -3.375 4.1875 C-8.28077818 5.28707097 -12.99480813 5.16030864 -18 5 C-18 4.34 -18 3.68 -18 3 C-17.26394531 2.95101562 -16.52789063 2.90203125 -15.76953125 2.8515625 C-14.79371094 2.77679688 -13.81789063 2.70203125 -12.8125 2.625 C-11.84957031 2.55539063 -10.88664062 2.48578125 -9.89453125 2.4140625 C-6.43815277 1.91962779 -3.4332943 0 0 0 Z " fill="#26262D" transform="translate(38,43)"/>
<path d="M0 0 C2.97 0 5.94 0 9 0 C9 1.32 9 2.64 9 4 C6.03 4 3.06 4 0 4 C0 2.68 0 1.36 0 0 Z " fill="#FCFCFC" transform="translate(53,11)"/>
<path d="M0 0 C0.33 0 0.66 0 1 0 C1.12117187 0.73605469 1.24234375 1.47210937 1.3671875 2.23046875 C1.53476563 3.20628906 1.70234375 4.18210937 1.875 5.1875 C2.03742187 6.15042969 2.19984375 7.11335938 2.3671875 8.10546875 C2.98039517 10.91032604 3.85666343 13.37224747 5 16 C4.01 16 3.02 16 2 16 C-0.21975392 10.72808443 -1.47558944 6.82597058 -1 1 C-0.67 0.67 -0.34 0.34 0 0 Z " fill="#D6D6D9" transform="translate(8,22)"/>
<path d="M0 0 C2 0 2 0 4.625 2.5 C5.40875 3.325 6.1925 4.15 7 5 C7.66 4.67 8.32 4.34 9 4 C9.66 5.65 10.32 7.3 11 9 C6.21842482 7.89655957 3.0252594 6.99334241 0 3 C0 2.01 0 1.02 0 0 Z " fill="#E6E8ED" transform="translate(14,33)"/>
<path d="M0 0 C5.875 4.75 5.875 4.75 7 7 C7.039992 8.99960012 7.04346799 11.00047242 7 13 C4.33333333 9 1.66666667 5 -1 1 C-0.67 0.67 -0.34 0.34 0 0 Z " fill="#363156" transform="translate(35,13)"/>
<path d="M0 0 C1.37478516 0.01740234 1.37478516 0.01740234 2.77734375 0.03515625 C3.69644531 0.04417969 4.61554687 0.05320312 5.5625 0.0625 C6.27277344 0.07410156 6.98304687 0.08570313 7.71484375 0.09765625 C7.71484375 0.75765625 7.71484375 1.41765625 7.71484375 2.09765625 C4.74484375 2.09765625 1.77484375 2.09765625 -1.28515625 2.09765625 C-1.61515625 3.41765625 -1.94515625 4.73765625 -2.28515625 6.09765625 C-2.66734392 4.44150968 -2.99910727 2.77308601 -3.28515625 1.09765625 C-2.28515625 0.09765625 -2.28515625 0.09765625 0 0 Z " fill="#CFCFCF" transform="translate(54.28515625,8.90234375)"/>
<path d="M0 0 C0.66 0 1.32 0 2 0 C0.6190998 3.33717549 -0.8201238 5.22301036 -4 7 C-6.25 6.6875 -6.25 6.6875 -8 6 C-6.02696226 4.02696226 -4.45708131 3.22854066 -2 2 C-1.34 1.34 -0.68 0.68 0 0 Z " fill="#EDF0F4" transform="translate(36,34)"/>
<path d="M0 0 C0.33 0 0.66 0 1 0 C1.08121924 1.60332791 1.13929134 3.20784026 1.1875 4.8125 C1.23970703 6.15248047 1.23970703 6.15248047 1.29296875 7.51953125 C0.95081002 10.41647515 0.24606427 11.22555028 -2 13 C-1.85769192 11.58297487 -1.71099254 10.1663904 -1.5625 8.75 C-1.48128906 7.96109375 -1.40007813 7.1721875 -1.31640625 6.359375 C-1.02365007 4.17635361 -0.57935581 2.1226818 0 0 Z " fill="#3D395C" transform="translate(42,22)"/>
<path d="M0 0 C0.99 0 1.98 0 3 0 C7 5.25714286 7 5.25714286 7 8 C3.64379729 6.61122646 1.92701272 5.08322035 0 2 C0 1.34 0 0.68 0 0 Z " fill="#6996C4" transform="translate(14,30)"/>
<path d="M0 0 C2.31 0 4.62 0 7 0 C7 0.99 7 1.98 7 3 C4.69 3 2.38 3 0 3 C0 2.01 0 1.02 0 0 Z " fill="#F5F5F5" transform="translate(93,17)"/>
<path d="M0 0 C0.66 0.33 1.32 0.66 2 1 C2 1.66 2 2.32 2 3 C1.38125 3.28875 0.7625 3.5775 0.125 3.875 C-2.13325765 4.93720042 -2.13325765 4.93720042 -4 7 C-4.66 7 -5.32 7 -6 7 C-4.60667426 3.63279613 -3.0210714 2.0140476 0 0 Z " fill="#DFE2E9" transform="translate(20,13)"/>
<path d="M0 0 C2.31 0.33 4.62 0.66 7 1 C7.33 1.99 7.66 2.98 8 4 C2.25 3.125 2.25 3.125 0 2 C0 1.34 0 0.68 0 0 Z " fill="#494566" transform="translate(17,40)"/>
<path d="M0 0 C0.556875 0.226875 1.11375 0.45375 1.6875 0.6875 C-1.125 2.25 -1.125 2.25 -4.3125 3.6875 C-5.3025 3.3575 -6.2925 3.0275 -7.3125 2.6875 C-2.88173077 -0.38942308 -2.88173077 -0.38942308 0 0 Z " fill="#3A365A" transform="translate(34.3125,40.3125)"/>
<path d="M0 0 C1.98 0.66 3.96 1.32 6 2 C6 2.99 6 3.98 6 5 C3.69 4.01 1.38 3.02 -1 2 C-0.67 1.34 -0.34 0.68 0 0 Z " fill="#2C2C32" transform="translate(32,7)"/>
</svg>
